<?xml version="1.0" encoding="iso-8859-1"?>
<!-- Generator: Adobe Illustrator 19.0.0, SVG Export Plug-In . SVG Version: 6.00 Build 0)  -->
<svg version="1.1" id="Capa_1" xmlns="http://www.w3.org/2000/svg" xmlns:xlink="http://www.w3.org/1999/xlink" x="0px" y="0px"
	 viewBox="0 0 512 512" style="enable-background:new 0 0 512 512;" xml:space="preserve">
<path style="fill:#E50027;" d="M497,180h-61c-8.291,0-15-6.709-15-15V75c0-8.291,6.709-15,15-15h61c8.291,0,15,6.709,15,15v90
	C512,173.291,505.291,180,497,180z"/>
<path style="fill:#10BB67;" d="M497,272h-61c-8.291,0-15-7.709-15-16v-91c0-8.291,6.709-15,15-15h61c8.291,0,15,6.709,15,15v91
	C512,264.291,505.291,272,497,272z"/>
<path style="fill:#1689FC;" d="M497,362h-61c-8.291,0-15-6.709-15-15v-91c0-8.291,6.709-15,15-15h61c8.291,0,15,6.709,15,15v91
	C512,355.291,505.291,362,497,362z"/>
<path style="fill:#FEDB41;" d="M406,512H135c-8.291,0-15-6.709-15-15V15c0-8.291,6.709-15,15-15h271c24.814,0,45,20.186,45,45v422
	C451,491.814,430.814,512,406,512z"/>
<path style="fill:#FCBF29;" d="M406,0H285v512h121c24.814,0,45-20.186,45-45V45C451,20.186,430.814,0,406,0z"/>
<path style="fill:#994C0F;" d="M150,512H75c-24.853,0-45-20.147-45-45V45C30,20.147,50.147,0,75,0h75V512z"/>
<g>
	<path style="fill:#CAE8F9;" d="M75,90H15C6.709,90,0,83.291,0,75s6.709-15,15-15h60c8.291,0,15,6.709,15,15S83.291,90,75,90z"/>
	<path style="fill:#CAE8F9;" d="M75,210H15c-8.291,0-15-6.709-15-15s6.709-15,15-15h60c8.291,0,15,6.709,15,15S83.291,210,75,210z"
		/>
	<path style="fill:#CAE8F9;" d="M75,332H15c-8.291,0-15-6.709-15-15s6.709-15,15-15h60c8.291,0,15,6.709,15,15S83.291,332,75,332z"
		/>
	<path style="fill:#CAE8F9;" d="M75,452H15c-8.291,0-15-6.709-15-15s6.709-15,15-15h60c8.291,0,15,6.709,15,15S83.291,452,75,452z"
		/>
</g>
<path style="fill:#994C0F;" d="M345,452H225c-8.291,0-15-6.709-15-15s6.709-15,15-15h120c8.291,0,15,6.709,15,15
	S353.291,452,345,452z"/>
<path style="fill:#713708;" d="M345,422h-60v30h60c8.291,0,15-6.709,15-15S353.291,422,345,422z"/>
<path style="fill:#994C0F;" d="M315,392h-60c-8.291,0-15-6.709-15-15s6.709-15,15-15h60c8.291,0,15,6.709,15,15S323.291,392,315,392
	z"/>
<path style="fill:#713708;" d="M315,362h-30v30h30c8.291,0,15-6.709,15-15S323.291,362,315,362z"/>
<path style="fill:#1689FC;" d="M345,302H225c-8.291,0-15-6.709-15-15v-61c0-41.353,33.647-76,75-76s75,34.647,75,76v61
	C360,295.291,353.291,302,345,302z"/>
<path style="fill:#136EF1;" d="M345,302c8.291,0,15-6.709,15-15v-61c0-41.353-33.647-76-75-76v152H345z"/>
<path style="fill:#17ACE8;" d="M285,180c-33.091,0-60-26.909-60-60s26.909-60,60-60s60,26.909,60,60S318.091,180,285,180z"/>
<path style="fill:#1689FC;" d="M345,120c0-33.091-26.909-60-60-60v120C318.091,180,345,153.091,345,120z"/>
<g>
</g>
<g>
</g>
<g>
</g>
<g>
</g>
<g>
</g>
<g>
</g>
<g>
</g>
<g>
</g>
<g>
</g>
<g>
</g>
<g>
</g>
<g>
</g>
<g>
</g>
<g>
</g>
<g>
</g>
</svg>
